<?xml version="1.0" standalone="no"?><!DOCTYPE svg PUBLIC "-//W3C//DTD SVG 1.1//EN" "http://www.w3.org/Graphics/SVG/1.1/DTD/svg11.dtd"><svg t="1735028617033" class="icon" viewBox="0 0 1024 1024" version="1.1" xmlns="http://www.w3.org/2000/svg" p-id="3361" width="32" height="32" xmlns:xlink="http://www.w3.org/1999/xlink"><path d="M518.4 985.6s-130.4-219.2 0-219.2c139.2-0.8 0 219.2 0 219.2z" fill="#FFFAE9" p-id="3362"></path><path d="M524.8 1012.8c-3.2 4.8-10.4 4.8-13.6 0l-9.6-16.8c-8.8-15.2-87.2-151.2-50.4-216 8.8-15.2 27.2-33.6 68-33.6 44 0 64 19.2 72.8 36 36 66.4-46.4 199.2-56 214.4l-11.2 16z m-6.4-227.2c-25.6 0-31.2 10.4-32.8 13.6-15.2 26.4 7.2 92.8 33.6 145.6 28-51.2 52-116.8 36.8-144-2.4-4-8.8-15.2-37.6-15.2z" p-id="3363"></path><path d="M168 483.2a360 344 90 1 0 688 0 360 344 90 1 0-688 0Z" fill="#FFFAE9" p-id="3364"></path><path d="M512 862.4c-200 0-363.2-170.4-363.2-379.2S312 104 512 104s363.2 170.4 363.2 379.2S712 862.4 512 862.4z m0-720c-179.2 0-324.8 152.8-324.8 340.8S332.8 824 512 824s324.8-152.8 324.8-340.8S691.2 142.4 512 142.4z" p-id="3365"></path><path d="M755.2 248.8s134.4 318.4 226.4 226.4C1080 376.8 755.2 248.8 755.2 248.8z" fill="#FFFAE9" p-id="3366"></path><path d="M944.8 512c-4.8 0-8.8-0.8-13.6-1.6-41.6-8-85.6-52.8-135.2-136.8-34.4-59.2-58.4-114.4-59.2-116.8l-18.4-44 44 17.6c24 9.6 236 95.2 256 189.6 4 17.6 2.4 44-23.2 69.6-14.4 14.4-32 22.4-50.4 22.4zM795.2 288c39.2 80 99.2 174.4 144 183.2 7.2 1.6 16.8 1.6 28-10.4 14.4-14.4 13.6-25.6 12-32.8-9.6-45.6-104.8-103.2-184-140z" p-id="3367"></path><path d="M267.2 248S-51.2 382.4 40.8 474.4C139.2 572.8 267.2 248 267.2 248z" fill="#FFFAE9" p-id="3368"></path><path d="M80.8 512.8c-16 0-35.2-5.6-54.4-24.8C8 469.6 0.8 448 5.6 424c8-41.6 52.8-85.6 136.8-135.2 59.2-34.4 115.2-58.4 116.8-59.2l44-18.4-17.6 44c-9.6 24-95.2 236-189.6 256-4.8 0.8-9.6 1.6-15.2 1.6zM228 288c-80 39.2-174.4 99.2-183.2 144-1.6 7.2-1.6 16.8 10.4 28C68.8 474.4 80 473.6 88 472c45.6-9.6 103.2-104 140-184z" p-id="3369"></path><path d="M838.4 218.4c19.2-9.6 32-26.4 32-44.8 0-30.4-33.6-55.2-74.4-55.2h-0.8c-4.8-27.2-36-48-73.6-48-24 0-45.6 8.8-59.2 21.6-6.4-25.6-36.8-44.8-72.8-44.8-21.6 0-40.8 7.2-54.4 17.6-9.6-22.4-37.6-38.4-70.4-38.4-36 0-65.6 18.4-72.8 44C379.2 61.6 362.4 56 343.2 56c-40.8 0-74.4 24.8-74.4 55.2v0.8c-10.4-6.4-22.4-10.4-35.2-10.4-34.4 0-61.6 24.8-61.6 55.2 0 10.4 3.2 20 8.8 28-25.6 8.8-43.2 28-43.2 50.4 0 30.4 33.6 55.2 74.4 55.2 6.4 0 12-0.8 18.4-1.6-0.8 4-1.6 8-1.6 11.2 0 30.4 33.6 55.2 74.4 55.2 19.2 0 36.8-5.6 49.6-14.4 12.8 17.6 36.8 28.8 65.6 28.8 19.2 0 36-5.6 49.6-14.4 12.8 8.8 30.4 14.4 49.6 14.4 32.8 0 61.6-16 70.4-38.4 13.6 14.4 36 24 60.8 24s47.2-9.6 60.8-23.2c11.2 3.2 23.2 4.8 36.8 4.8 23.2 0 44-5.6 60-14.4h0.8c40.8 0 74.4-24.8 74.4-55.2-1.6-21.6-18.4-40-43.2-48.8z" fill="#FFFAE9" p-id="3370"></path><path d="M516 390.4c-17.6 0-34.4-4-49.6-11.2-14.4 7.2-32 11.2-49.6 11.2-26.4 0-52-8.8-69.6-24-13.6 6.4-29.6 9.6-45.6 9.6-48 0-87.2-28-93.6-64.8-50.4-0.8-91.2-34.4-91.2-75.2 0-24 14.4-45.6 36.8-60-1.6-5.6-2.4-12-2.4-18.4 0-41.6 36.8-75.2 81.6-75.2 7.2 0 14.4 0.8 21.6 2.4 13.6-28.8 48-48.8 88-48.8 14.4 0 28 2.4 40.8 7.2C400 20.8 430.4 6.4 464.8 6.4c31.2 0 59.2 12 76.8 31.2 14.4-7.2 31.2-10.4 48.8-10.4 33.6 0 63.2 13.6 80 35.2 15.2-8 32.8-12 52-12 40 0 74.4 20 88 48.8 45.6 5.6 80 36.8 80 74.4 0 15.2-5.6 30.4-16 42.4 16.8 13.6 26.4 32 26.4 52 0 40-40 73.6-90.4 75.2-18.4 9.6-41.6 14.4-65.6 14.4-10.4 0-20.8-0.8-31.2-3.2C696 368 672.8 376 648 376c-20.8 0-40.8-5.6-56.8-15.2-17.6 18.4-44.8 29.6-75.2 29.6z m-53.6-55.2c2.4-1.6 6.4-1.6 8.8 0l6.4 4c10.4 7.2 24 10.4 38.4 10.4 27.2 0 46.4-13.6 52-26.4l2.4-5.6c4.8-10.4 18.4-12.8 26.4-4.8l4 4.8c10.4 11.2 27.2 17.6 46.4 17.6 18.4 0 36-6.4 46.4-16.8l4.8-5.6c2.4-2.4 4.8-3.2 8-2.4l7.2 1.6c9.6 2.4 20 4 31.2 4 19.2 0 36.8-4 50.4-12l4.8-2.4h6.4c28.8 0 53.6-16 53.6-35.2 0-12-11.2-24-28.8-30.4l-8.8-3.2c-12.8-4.8-14.4-22.4-1.6-29.6l8-4c12.8-7.2 20.8-16.8 20.8-27.2 0-19.2-24.8-35.2-54.4-35.2h-16.8l-3.2-16.8c-2.4-15.2-24-31.2-53.6-31.2-17.6 0-34.4 5.6-44.8 16l-15.2 14.4c-4.8 4-12 2.4-13.6-4l-4.8-20c-4-14.4-24-29.6-53.6-29.6-16 0-31.2 4.8-41.6 13.6L536 90.4c-4 3.2-10.4 1.6-12-3.2l-6.4-14.4c-6.4-15.2-28-26.4-52-26.4-29.6 0-49.6 15.2-53.6 28.8l-4.8 16c-1.6 5.6-8 7.2-12 4.8l-13.6-8.8c-10.4-7.2-24-10.4-38.4-10.4-28.8 0-53.6 16-54.4 34.4v0.8l0.8 22.4c0 6.4-7.2 10.4-12 7.2l-19.2-12c-7.2-4.8-16-7.2-24.8-7.2-23.2 0-41.6 16-41.6 35.2 0 5.6 1.6 12 5.6 16.8l8.8 12.8c3.2 4 0.8 10.4-4 12l-14.4 4.8c-18.4 6.4-29.6 18.4-29.6 31.2 0 19.2 24.8 35.2 54.4 35.2 4.8 0 9.6-0.8 14.4-1.6l19.2-3.2c5.6-0.8 10.4 4 8.8 10.4l-5.6 18.4c-1.6 2.4-1.6 4-1.6 6.4 0 19.2 24.8 35.2 54.4 35.2 14.4 0 28-4 38.4-11.2l9.6-6.4c3.2-2.4 8.8-1.6 11.2 1.6l7.2 9.6c8.8 12.8 28.8 20.8 48.8 20.8 14.4 0 28-4 38.4-10.4l6.4-4.8z" p-id="3371"></path><path d="M682.4 491.2m-72 0a72 72 0 1 0 144 0 72 72 0 1 0-144 0Z" fill="#FFFFFF" p-id="3372"></path><path d="M682.4 575.2c-46.4 0-84-37.6-84-84s37.6-84 84-84 84 37.6 84 84-37.6 84-84 84z m0-144c-32.8 0-60 27.2-60 60s27.2 60 60 60 60-27.2 60-60-27.2-60-60-60z" p-id="3373"></path><path d="M682.4 489.6m-40 0a40 40 0 1 0 80 0 40 40 0 1 0-80 0Z" p-id="3374"></path><path d="M362.4 491.2m-72 0a72 72 0 1 0 144 0 72 72 0 1 0-144 0Z" fill="#FFFFFF" p-id="3375"></path><path d="M362.4 575.2c-46.4 0-84-37.6-84-84s37.6-84 84-84 84 37.6 84 84-37.6 84-84 84z m0-144c-32.8 0-60 27.2-60 60s27.2 60 60 60 60-27.2 60-60-27.2-60-60-60z" p-id="3376"></path><path d="M362.4 489.6m-40 0a40 40 0 1 0 80 0 40 40 0 1 0-80 0Z" p-id="3377"></path><path d="M373.6 496m-9.6 0a9.6 9.6 0 1 0 19.2 0 9.6 9.6 0 1 0-19.2 0Z" fill="#FFFFFF" p-id="3378"></path><path d="M669.6 496m-9.6 0a9.6 9.6 0 1 0 19.2 0 9.6 9.6 0 1 0-19.2 0Z" fill="#FFFFFF" p-id="3379"></path><path d="M477.6 627.2c-7.2 0-10.4 8-5.6 13.6 11.2 12 28.8 26.4 48 26.4s37.6-15.2 48.8-26.4c4.8-4.8 1.6-13.6-5.6-13.6H477.6z" p-id="3380"></path><path d="M508 655.2h24v60.8h-24z" p-id="3381"></path><path d="M517.6 735.2c-54.4 0-104-40.8-105.6-43.2-5.6-4.8-5.6-12-1.6-17.6 4.8-4.8 12-5.6 17.6-1.6 0.8 0 45.6 37.6 91.2 36.8 46.4-0.8 83.2-36 84-36.8 4.8-4.8 12.8-4.8 17.6 0.8s4.8 12.8 0 17.6c-1.6 1.6-44.8 42.4-100.8 43.2 0 0.8-1.6 0.8-2.4 0.8z" p-id="3382"></path><path d="M261.6 627.2a56 32 0 1 0 112 0 56 32 0 1 0-112 0Z" fill="#F99F91" p-id="3383"></path><path d="M661.6 627.2a56 32 0 1 0 112 0 56 32 0 1 0-112 0Z" fill="#F99F91" p-id="3384"></path></svg>